<mxfile host="app.diagrams.net" modified="2021-02-09T23:58:26.071Z" agent="5.0 (Windows NT 10.0; Win64; x64) AppleWebKit/537.36 (KHTML, like Gecko) Chrome/86.0.4240.193 Safari/537.36" etag="7S3iVGmq7Eq5sb7hgP0C" version="14.2.9" type="github">
  <diagram id="mCXQ_mmjeto5yuL0Vren" name="Page-1">
    <mxGraphModel dx="949" dy="601" grid="1" gridSize="10" guides="1" tooltips="1" connect="1" arrows="1" fold="1" page="1" pageScale="1" pageWidth="850" pageHeight="1100" math="0" shadow="0">
      <root>
        <mxCell id="0" />
        <mxCell id="1" parent="0" />
        <mxCell id="uPJBNxyowQSizIed1Nad-3" value="" style="edgeStyle=orthogonalEdgeStyle;rounded=0;orthogonalLoop=1;jettySize=auto;html=1;" edge="1" parent="1" source="uPJBNxyowQSizIed1Nad-1" target="uPJBNxyowQSizIed1Nad-2">
          <mxGeometry relative="1" as="geometry" />
        </mxCell>
        <mxCell id="uPJBNxyowQSizIed1Nad-1" value="Model Development on PC" style="rounded=0;whiteSpace=wrap;html=1;" vertex="1" parent="1">
          <mxGeometry x="100" y="190" width="120" height="60" as="geometry" />
        </mxCell>
        <mxCell id="uPJBNxyowQSizIed1Nad-5" value="" style="edgeStyle=orthogonalEdgeStyle;rounded=0;orthogonalLoop=1;jettySize=auto;html=1;" edge="1" parent="1" source="uPJBNxyowQSizIed1Nad-2" target="uPJBNxyowQSizIed1Nad-4">
          <mxGeometry relative="1" as="geometry" />
        </mxCell>
        <mxCell id="uPJBNxyowQSizIed1Nad-2" value="Model Optimization&amp;nbsp;" style="whiteSpace=wrap;html=1;rounded=0;" vertex="1" parent="1">
          <mxGeometry x="300" y="190" width="120" height="60" as="geometry" />
        </mxCell>
        <mxCell id="uPJBNxyowQSizIed1Nad-6" style="edgeStyle=orthogonalEdgeStyle;rounded=0;orthogonalLoop=1;jettySize=auto;html=1;exitX=0.5;exitY=0;exitDx=0;exitDy=0;entryX=0.5;entryY=0;entryDx=0;entryDy=0;" edge="1" parent="1" source="uPJBNxyowQSizIed1Nad-4" target="uPJBNxyowQSizIed1Nad-1">
          <mxGeometry relative="1" as="geometry">
            <Array as="points">
              <mxPoint x="560" y="120" />
              <mxPoint x="160" y="120" />
            </Array>
          </mxGeometry>
        </mxCell>
        <mxCell id="uPJBNxyowQSizIed1Nad-8" style="edgeStyle=orthogonalEdgeStyle;rounded=0;orthogonalLoop=1;jettySize=auto;html=1;exitX=0.5;exitY=0;exitDx=0;exitDy=0;entryX=0.5;entryY=0;entryDx=0;entryDy=0;" edge="1" parent="1" source="uPJBNxyowQSizIed1Nad-4" target="uPJBNxyowQSizIed1Nad-2">
          <mxGeometry relative="1" as="geometry">
            <Array as="points">
              <mxPoint x="560" y="120" />
              <mxPoint x="360" y="120" />
            </Array>
          </mxGeometry>
        </mxCell>
        <mxCell id="uPJBNxyowQSizIed1Nad-4" value="Model Deployment" style="whiteSpace=wrap;html=1;rounded=0;" vertex="1" parent="1">
          <mxGeometry x="500" y="190" width="120" height="60" as="geometry" />
        </mxCell>
        <mxCell id="uPJBNxyowQSizIed1Nad-9" value="Tensorlfow + GPU/TPU" style="text;html=1;align=center;verticalAlign=middle;resizable=0;points=[];autosize=1;" vertex="1" parent="1">
          <mxGeometry x="90" y="260" width="140" height="20" as="geometry" />
        </mxCell>
        <mxCell id="uPJBNxyowQSizIed1Nad-10" value="Tensorflow LITE" style="text;html=1;align=center;verticalAlign=middle;resizable=0;points=[];autosize=1;" vertex="1" parent="1">
          <mxGeometry x="305" y="260" width="100" height="20" as="geometry" />
        </mxCell>
        <mxCell id="uPJBNxyowQSizIed1Nad-11" value="Android/IOS/Embedded" style="text;html=1;align=center;verticalAlign=middle;resizable=0;points=[];autosize=1;" vertex="1" parent="1">
          <mxGeometry x="490" y="260" width="140" height="20" as="geometry" />
        </mxCell>
      </root>
    </mxGraphModel>
  </diagram>
</mxfile>
